<svg width="24" height="24" viewBox="0 0 24 24" version="1.1" xmlns="http://www.w3.org/2000/svg" xmlns:xlink="http://www.w3.org/1999/xlink">
<title>instagram</title>
<desc>Created using Figma</desc>
<g id="Canvas" transform="translate(-2968 -1052)">
<g id="ic/24/social/instagram">
<g id="Combined Shape">
<use xlink:href="#path0_fill" transform="translate(2971 1055)" fill="#FFFFFF"/>
</g>
<mask id="mask0_outline" mask-type="alpha">
<g id="Combined Shape">
<use xlink:href="#path1_fill" transform="translate(2975.36 1057.6)" fill="#FFFFFF"/>
</g>
</mask>
</g>
</g>
<defs>
<path id="path0_fill" fill-rule="evenodd" d="M 13.0325 0L 4.96729 0C 2.22827 0 0 2.22839 0 4.96741L 0 13.0326C 0 15.7717 2.22827 18 4.96729 18L 13.0325 18C 15.7717 18 18 15.7716 18 13.0326L 18 4.96741C 18 2.22839 15.7717 0 13.0325 0ZM 17 13.3579C 17 15.3662 15.3662 17 13.3579 17L 4.64209 17C 2.63379 17.0001 1 15.3662 1 13.3579L 1 4.64209C 1 2.63391 2.63379 1 4.64209 1L 13.3577 1C 15.366 1 17 2.63391 17 4.64209L 17 13.3579ZM 4.36182 9.00024C 4.36182 6.44275 6.44238 4.36206 9 4.36206C 11.5574 4.36206 13.6382 6.44275 13.6382 9.00024C 13.6382 11.5576 11.5574 13.6382 9 13.6382C 6.44238 13.6382 4.36182 11.5576 4.36182 9.00024ZM 13.4348 2.83411C 13.5833 2.68506 13.7898 2.59998 14 2.59998C 14.2109 2.59998 14.4175 2.68506 14.5657 2.83411C 14.7148 2.98254 14.8 3.18909 14.8 3.40002C 14.8 3.61011 14.7148 3.81665 14.5657 3.96582C 14.4167 4.11414 14.2109 4.19995 14 4.19995C 13.9355 4.19995 13.8716 4.19189 13.8096 4.17651C 13.6687 4.1416 13.5378 4.06873 13.4348 3.96582C 13.2859 3.81665 13.2 3.61023 13.2 3.40002C 13.2 3.18909 13.2856 2.98254 13.4348 2.83411Z"/>
<path id="path1_fill" fill-rule="evenodd" d="M 9.073 0.234131C 9.22144 0.085083 9.42798 0 9.63818 0C 9.84912 0 10.0557 0.085083 10.2039 0.234131C 10.353 0.382568 10.4382 0.589111 10.4382 0.800049C 10.4382 1.01013 10.353 1.21667 10.2039 1.36584C 10.0549 1.51416 9.84912 1.59998 9.63818 1.59998C 9.57373 1.59998 9.50977 1.59192 9.44775 1.57654C 9.30688 1.54163 9.17603 1.46875 9.073 1.36584C 8.92407 1.21667 8.83813 1.01025 8.83813 0.800049C 8.83813 0.589111 8.92383 0.382568 9.073 0.234131ZM 4.63818 1.76208C 2.08057 1.76208 0 3.84277 0 6.40027C 0 8.95764 2.08057 11.0382 4.63818 11.0382C 7.19556 11.0382 9.27637 8.95764 9.27637 6.40027C 9.27637 3.84277 7.19556 1.76208 4.63818 1.76208ZM 4.63843 10.2397C 2.521 10.2397 0.79834 8.51733 0.79834 6.40002C 0.79834 4.28259 2.521 2.56006 4.63843 2.56006C 6.75586 2.56006 8.47827 4.28259 8.47827 6.40002C 8.47827 8.51733 6.75562 10.2397 4.63843 10.2397Z"/>
</defs>
</svg>
