<svg width="7" height="14" viewBox="0 0 7 14" version="1.1" xmlns="http://www.w3.org/2000/svg" xmlns:xlink="http://www.w3.org/1999/xlink">
<title>world</title>
<desc>Created using Figma</desc>
<g id="Canvas" transform="translate(-2920 -956)">
<g id="world">
<g id="Shape">
<use xlink:href="#path0_fill" transform="translate(2920.42 956.196)" fill="#FFFFFF"/>
</g>
</g>
</g>
<defs>
<path id="path0_fill" fill-rule="evenodd" d="M 2.69116 4.23071C 2.22998 2.01544 0.842041 0.349487 0 0L 0 4.34302C 0.507812 4.33679 1.1123 4.31866 1.67456 4.29236C 2.04492 4.27502 2.39697 4.25415 2.69116 4.23071ZM 5.60449 3.76727C 5.45093 3.81445 4.82886 3.98792 3.59863 4.13361C 3.32104 2.6571 2.82007 1.39899 2.1665 0.490662C 3.66455 1.13995 4.88281 2.30878 5.60449 3.76727ZM 1.74316 5.26624C 2.12891 5.24744 2.49829 5.22473 2.80615 5.19916C 2.87085 5.71735 2.88696 6.25378 2.88696 6.80536C 2.88696 7.51379 2.86182 8.20099 2.75732 8.85022C 1.9856 8.7879 0.842041 8.74304 0 8.73291L 0 5.32153C 0.51123 5.31488 1.14697 5.29523 1.74316 5.26624ZM 0 9.71143L 0 13.611C 0.842041 13.285 2.08887 11.8119 2.58862 9.81671C 1.86719 9.76111 0.842041 9.72156 0 9.71143ZM 2.1665 13.1205C 2.75537 12.302 3.22437 11.2034 3.51392 9.91296C 4.48169 10.0244 5.09131 10.1541 5.39868 10.2316C 4.65869 11.5159 3.52563 12.5287 2.1665 13.1205ZM 3.74683 5.10089C 3.89453 6.37988 3.87476 7.67267 3.68799 8.94653C 4.29565 9.01758 4.76978 9.09631 5.12476 9.16687C 5.46826 9.23511 5.69995 9.29565 5.83276 9.33447C 6.14453 8.55072 6.32129 7.69879 6.32129 6.80536C 6.3208 5.92218 6.14917 5.04749 5.81592 4.22961L 5.97412 4.6759C 5.92969 4.69165 5.26001 4.91931 3.74683 5.10089Z"/>
</defs>
</svg>
